<?xml version="1.0" standalone="no"?>
<!DOCTYPE svg PUBLIC "-//W3C//DTD SVG 20010904//EN"
 "http://www.w3.org/TR/2001/REC-SVG-20010904/DTD/svg10.dtd">
<svg version="1.0" xmlns="http://www.w3.org/2000/svg"
 width="768.000000pt" height="768.000000pt" viewBox="0 0 768.000000 768.000000"
 preserveAspectRatio="xMidYMid meet">
<metadata>
Created by potrace 1.14, written by Peter Selinger 2001-2017
</metadata>
<g transform="translate(0.000000,768.000000) scale(0.100000,-0.100000)"
fill="#000000" stroke="none">
<path d="M3637 7504 c-1 -1 -36 -5 -77 -8 -126 -10 -183 -17 -240 -26 -30 -5
-73 -12 -95 -15 -73 -10 -99 -16 -185 -36 -47 -11 -94 -22 -105 -25 -115 -23
-381 -114 -550 -187 -307 -132 -644 -341 -905 -560 -217 -182 -484 -475 -650
-712 -125 -178 -284 -465 -362 -650 -129 -307 -229 -670 -264 -955 -3 -30 -8
-66 -9 -80 -25 -197 -25 -683 -1 -818 2 -9 7 -44 11 -77 5 -33 9 -67 10 -75 2
-8 5 -34 9 -57 3 -24 15 -85 26 -135 12 -51 23 -101 25 -110 98 -444 347 -966
654 -1368 159 -208 412 -466 616 -629 126 -100 353 -257 465 -321 178 -101
595 -286 689 -305 9 -2 30 -8 46 -15 68 -26 347 -93 485 -116 25 -4 47 -8 50
-9 5 -1 93 -13 155 -20 218 -26 566 -26 820 1 174 18 495 85 668 140 974 309
1749 970 2206 1883 146 290 278 695 325 996 27 175 31 204 43 345 9 109 9 440
0 550 -12 149 -17 194 -22 215 -2 11 -7 43 -10 70 -38 305 -163 706 -320 1032
-265 550 -652 1014 -1150 1379 -174 128 -314 212 -535 322 -325 162 -637 263
-1005 327 -74 13 -108 18 -210 30 -117 14 -196 18 -388 19 -120 1 -219 1 -220
0z m523 -588 c19 -3 55 -8 80 -11 48 -6 152 -22 185 -29 11 -2 54 -11 95 -20
41 -9 107 -25 145 -36 39 -12 77 -23 85 -25 39 -10 194 -66 275 -100 489 -202
922 -533 1251 -955 327 -419 553 -942 620 -1435 4 -27 8 -59 10 -70 20 -103
26 -549 11 -700 -56 -542 -249 -1051 -566 -1495 -41 -58 -77 -107 -81 -110 -3
-3 -16 -18 -29 -35 -44 -58 -137 -160 -225 -248 -342 -343 -776 -605 -1251
-757 -82 -26 -286 -78 -337 -85 -24 -4 -45 -8 -48 -10 -3 -1 -32 -6 -65 -10
-32 -3 -62 -8 -65 -10 -29 -18 -577 -27 -710 -12 -122 14 -233 30 -290 42 -14
3 -47 10 -75 15 -259 51 -619 191 -880 343 -362 209 -720 530 -940 841 -11 15
-25 33 -30 40 -6 6 -36 49 -66 96 -185 284 -317 575 -405 898 -30 111 -31 114
-80 392 -29 167 -26 666 6 850 5 30 11 72 14 92 3 21 10 57 15 80 6 24 12 54
14 68 12 68 81 298 120 400 323 846 977 1502 1812 1815 153 57 374 120 495
140 19 3 42 8 50 10 8 2 40 7 70 10 30 4 57 8 60 10 3 2 48 7 100 10 52 4 97
9 99 11 6 6 491 -3 531 -10z"/>
</g>
</svg>
